REM DIRINDEX 1\8,1\2\11,1\3\12,1\3\14,1\5\15,1\5\16,1\6\17,1\6\18,1\4\19,1\4\20,1\4\21,1\4\22,1\7\23,1\7\24,1\7\25,1\2\9\26,1\2\9\27,1\2\10\28,1\2\10\29,1\2\10\30,1\2\10\31,1\2\10\32,1\3\13\33,1\3\13\34,1\3\13\35
REM DIRNAME folder01,folder02,folder03,folder04,folder05,folder06,folder07,folder08,folder09,folder10,folder11,folder12,folder13,folder14,folder15,folder16,folder17,folder18,folder19,folder20,folder21,folder22,folder23,folder24,folder25,folder26,folder27,folder28,folder29,folder30,folder31,folder32,folder33,folder34,folder35
TITLE ""
FILE "138 138_例文UNIT3_SET4.mp3" MP3
  TRACK 01 AUDIO
    TITLE "22:cjc123_3326"
    INDEX 01 00:00:00
  TRACK 02 AUDIO
    TITLE "0:"
    INDEX 01 00:02:45
  TRACK 03 AUDIO
    TITLE "19:cjc123_3327"
    INDEX 01 00:03:33
  TRACK 04 AUDIO
    TITLE "0:"
    INDEX 01 00:06:45
  TRACK 05 AUDIO
    TITLE "20:cjc123_3328"
    INDEX 01 00:06:71
  TRACK 06 AUDIO
    TITLE "0:"
    INDEX 01 00:10:70
  TRACK 07 AUDIO
    TITLE "21:cjc123_3329"
    INDEX 01 00:11:33
  TRACK 08 AUDIO
    TITLE "0:"
    INDEX 01 00:14:45
  TRACK 09 AUDIO
    TITLE "19:cjc123_3330"
    INDEX 01 00:15:30
  TRACK 10 AUDIO
    TITLE "0:"
    INDEX 01 00:18:54
  TRACK 11 AUDIO
    TITLE "20:cjc123_3331"
    INDEX 01 00:19:16
  TRACK 12 AUDIO
    TITLE "0:"
    INDEX 01 00:23:06
  TRACK 13 AUDIO
    TITLE "21:cjc123_3332"
    INDEX 01 00:23:40
  TRACK 14 AUDIO
    TITLE "0:"
    INDEX 01 00:26:66
  TRACK 15 AUDIO
    TITLE "19:cjc123_3333"
    INDEX 01 00:27:47
  TRACK 16 AUDIO
    TITLE "0:"
    INDEX 01 00:31:29
  TRACK 17 AUDIO
    TITLE "20:cjc123_3334"
    INDEX 01 00:31:63
  TRACK 18 AUDIO
    TITLE "0:"
    INDEX 01 00:35:72
  TRACK 19 AUDIO
    TITLE "21:cjc123_3335"
    INDEX 01 00:36:25
  TRACK 20 AUDIO
    TITLE "0:"
    INDEX 01 00:40:07
  TRACK 21 AUDIO
    TITLE "19:cjc123_3336"
    INDEX 01 00:40:58
  TRACK 22 AUDIO
    TITLE "0:"
    INDEX 01 00:44:46
  TRACK 23 AUDIO
    TITLE "20:cjc123_3337"
    INDEX 01 00:45:02
  TRACK 24 AUDIO
    TITLE "0:"
    INDEX 01 00:48:55
  TRACK 25 AUDIO
    TITLE "21:cjc123_3338"
    INDEX 01 00:49:08
  TRACK 26 AUDIO
    TITLE "0:"
    INDEX 01 00:52:69
  TRACK 27 AUDIO
    TITLE "19:cjc123_3339"
    INDEX 01 00:53:43
  TRACK 28 AUDIO
    TITLE "0:"
    INDEX 01 00:57:13
  TRACK 29 AUDIO
    TITLE "20:cjc123_3340"
    INDEX 01 00:57:56
  TRACK 30 AUDIO
    TITLE "0:"
    INDEX 01 01:02:48
  TRACK 31 AUDIO
    TITLE "21:cjc123_3341"
    INDEX 01 01:02:73
  TRACK 32 AUDIO
    TITLE "0:"
    INDEX 01 01:06:42
  TRACK 33 AUDIO
    TITLE "19:cjc123_3342"
    INDEX 01 01:07:27
  TRACK 34 AUDIO
    TITLE "0:"
    INDEX 01 01:11:45
  TRACK 35 AUDIO
    TITLE "20:cjc123_3343"
    INDEX 01 01:12:07
  TRACK 36 AUDIO
    TITLE "0:"
    INDEX 01 01:16:03
  TRACK 37 AUDIO
    TITLE "21:cjc123_3344"
    INDEX 01 01:16:32
  TRACK 38 AUDIO
    TITLE "0:"
    INDEX 01 01:20:51
  TRACK 39 AUDIO
    TITLE "19:cjc123_3345"
    INDEX 01 01:21:29
  TRACK 40 AUDIO
    TITLE "0:"
    INDEX 01 01:24:45
  TRACK 41 AUDIO
    TITLE "20:cjc123_3346"
    INDEX 01 01:25:00
  TRACK 42 AUDIO
    TITLE "0:"
    INDEX 01 01:28:51
  TRACK 43 AUDIO
    TITLE "21:cjc123_3347"
    INDEX 01 01:29:05
  TRACK 44 AUDIO
    TITLE "0:"
    INDEX 01 01:32:21
  TRACK 45 AUDIO
    TITLE "19:cjc123_3348"
    INDEX 01 01:32:72
  TRACK 46 AUDIO
    TITLE "0:"
    INDEX 01 01:36:48
  TRACK 47 AUDIO
    TITLE "20:cjc123_3349"
    INDEX 01 01:36:70
  TRACK 48 AUDIO
    TITLE "0:"
    INDEX 01 01:40:52
  TRACK 49 AUDIO
    TITLE "21:cjc123_3350"
    INDEX 01 01:41:05
  TRACK 50 AUDIO
    TITLE "0:"
    INDEX 01 01:44:54
  TRACK 51 AUDIO
    TITLE "19:cjc123_3351"
    INDEX 01 01:45:28
  TRACK 52 AUDIO
    TITLE "0:"
    INDEX 01 01:49:04
  TRACK 53 AUDIO
    TITLE "20:cjc123_3352"
    INDEX 01 01:49:45
  TRACK 54 AUDIO
    TITLE "0:"
    INDEX 01 01:53:45
  TRACK 55 AUDIO
    TITLE "21:cjc123_3353"
    INDEX 01 01:53:72
  TRACK 56 AUDIO
    TITLE "0:"
    INDEX 01 01:57:49
  TRACK 57 AUDIO
    TITLE "19:cjc123_3354"
    INDEX 01 01:58:23
  TRACK 58 AUDIO
    TITLE "0:"
    INDEX 01 02:01:19
  TRACK 59 AUDIO
    TITLE "20:cjc123_3355"
    INDEX 01 02:01:56
  TRACK 60 AUDIO
    TITLE "0:"
    INDEX 01 02:05:01
  TRACK 61 AUDIO
    TITLE "21:cjc123_3356"
    INDEX 01 02:05:27
  TRACK 62 AUDIO
    TITLE "0:"
    INDEX 01 02:08:21
  TRACK 63 AUDIO
    TITLE "19:cjc123_3357"
    INDEX 01 02:09:03
  TRACK 64 AUDIO
    TITLE "0:"
    INDEX 01 02:12:27
  TRACK 65 AUDIO
    TITLE "20:cjc123_3358"
    INDEX 01 02:12:58
  TRACK 66 AUDIO
    TITLE "0:"
    INDEX 01 02:16:30
  TRACK 67 AUDIO
    TITLE "21:cjc123_3359"
    INDEX 01 02:16:66
  TRACK 68 AUDIO
    TITLE "0:"
    INDEX 01 02:20:14
  TRACK 69 AUDIO
    TITLE "19:cjc123_3360"
    INDEX 01 02:20:73
  TRACK 70 AUDIO
    TITLE "0:"
    INDEX 01 02:24:57
  TRACK 71 AUDIO
    TITLE "20:cjc123_3361"
    INDEX 01 02:25:14
  TRACK 72 AUDIO
    TITLE "0:"
    INDEX 01 02:28:39
  TRACK 73 AUDIO
    TITLE "21:cjc123_3362"
    INDEX 01 02:28:73
  TRACK 74 AUDIO
    TITLE "0:"
    INDEX 01 02:32:55
  TRACK 75 AUDIO
    TITLE "19:cjc123_3363"
    INDEX 01 02:33:21
  TRACK 76 AUDIO
    TITLE "0:"
    INDEX 01 02:37:36
  TRACK 77 AUDIO
    TITLE "20:cjc123_3364"
    INDEX 01 02:38:16
  TRACK 78 AUDIO
    TITLE "0:"
    INDEX 01 02:42:18
  TRACK 79 AUDIO
    TITLE "21:cjc123_3365"
    INDEX 01 02:42:47
  TRACK 80 AUDIO
    TITLE "0:"
    INDEX 01 02:46:63
  TRACK 81 AUDIO
    TITLE "19:cjc123_3366"
    INDEX 01 02:47:37
  TRACK 82 AUDIO
    TITLE "0:"
    INDEX 01 02:51:58
  TRACK 83 AUDIO
    TITLE "20:cjc123_3367"
    INDEX 01 02:52:14
  TRACK 84 AUDIO
    TITLE "0:"
    INDEX 01 02:57:57
  TRACK 85 AUDIO
    TITLE "21:cjc123_3368"
    INDEX 01 02:58:07
  TRACK 86 AUDIO
    TITLE "0:"
    INDEX 01 03:02:29
  TRACK 87 AUDIO
    TITLE "19:cjc123_3369"
    INDEX 01 03:03:04
  TRACK 88 AUDIO
    TITLE "0:"
    INDEX 01 03:07:61
  TRACK 89 AUDIO
    TITLE "20:cjc123_3370"
    INDEX 01 03:08:17
  TRACK 90 AUDIO
    TITLE "0:"
    INDEX 01 03:13:15
  TRACK 91 AUDIO
    TITLE "21:cjc123_3371"
    INDEX 01 03:13:42
  TRACK 92 AUDIO
    TITLE "0:"
    INDEX 01 03:18:24
